<?xml version="1.0" encoding="UTF-8" standalone="no"?>
<svg width="94px" height="35px" viewBox="0 0 94 35" version="1.1" xmlns="http://www.w3.org/2000/svg" xmlns:xlink="http://www.w3.org/1999/xlink">
    <!-- Generator: Sketch 3.6.1 (26313) - http://www.bohemiancoding.com/sketch -->
    <title>logo mark 01 copy</title>
    <desc>Created with Sketch.</desc>
    <defs>
        <path id="path-1" d="M45,25.0810811 C69.8528137,25.0810811 90,12.5405405 90,12.5405405 C90,12.5405405 69.8528137,0 45,0 C20.1471863,0 0,12.5405405 0,12.5405405 C0,12.5405405 20.1471863,25.0810811 45,25.0810811 Z"></path>
    </defs>
    <g id="Welcome" stroke="none" stroke-width="1" fill="none" fill-rule="evenodd">
        <g id="Desktop-Copy" transform="translate(-497.000000, -403.000000)">
            <g id="logo-mark-01-copy" transform="translate(499.000000, 404.000000)">
                <g id="Oval-2">
                    <mask id="mask-2" fill="white">
                        <use xlink:href="#path-1"></use>
                    </mask>
                    <use id="Mask" xlink:href="#path-1"></use>
                    <path d="M45.4326923,29.1081081 C49.2562021,29.1081081 52.3557692,26.0104026 52.3557692,22.1891892 C52.3557692,18.3679758 49.2562021,15.2702703 45.4326923,15.2702703 C41.6091825,15.2702703 38.5096154,18.3679758 38.5096154,22.1891892 C38.5096154,26.0104026 41.6091825,29.1081081 45.4326923,29.1081081 Z" fill="#FFFFFF" mask="url(#mask-2)"></path>
                </g>
                <ellipse id="Oval-2-Copy" stroke="#FFFFFF" stroke-width="2" cx="45.2163462" cy="21.972973" rx="11.0336538" ry="11.027027"></ellipse>
                <path d="M45,25.0810811 C69.8528137,25.0810811 90,12.5405405 90,12.5405405 C90,12.5405405 69.8528137,0 45,0 C20.1471863,0 0,12.5405405 0,12.5405405 C0,12.5405405 20.1471863,25.0810811 45,25.0810811 Z" id="Mask" stroke="#FFFFFF" stroke-width="2"></path>
                <path d="M45.4326923,29.1081081 C49.2562021,29.1081081 52.3557692,26.0104026 52.3557692,22.1891892 C52.3557692,18.3679758 49.2562021,15.2702703 45.4326923,15.2702703 C41.6091825,15.2702703 38.5096154,18.3679758 38.5096154,22.1891892 C38.5096154,26.0104026 41.6091825,29.1081081 45.4326923,29.1081081 Z" id="Oval-2" stroke="#FFFFFF" stroke-width="2"></path>
            </g>
        </g>
    </g>
</svg>