<?xml version="1.0" encoding="UTF-8" standalone="no"?>
<svg width="99px" height="34px" viewBox="0 0 99 34" version="1.1" xmlns="http://www.w3.org/2000/svg" xmlns:xlink="http://www.w3.org/1999/xlink">
    <!-- Generator: Sketch 3.6.1 (26313) - http://www.bohemiancoding.com/sketch -->
    <title>logo mark 03 copy</title>
    <desc>Created with Sketch.</desc>
    <defs></defs>
    <g id="Welcome" stroke="none" stroke-width="1" fill="none" fill-rule="evenodd">
        <g id="Desktop-Copy" transform="translate(-133.000000, -403.000000)" stroke="#FFFFFF">
            <g id="logo-mark-03-copy" transform="translate(133.000000, 404.000000)">
                <ellipse id="Oval-2-Copy" cx="49.7379808" cy="19.8208955" rx="12.1370192" ry="12.1791045"></ellipse>
                <path d="M49.5,27.7014925 C76.8380951,27.7014925 99,13.8507463 99,13.8507463 C99,13.8507463 76.8380951,0 49.5,0 C22.1619049,0 0,13.8507463 0,13.8507463 C0,13.8507463 22.1619049,27.7014925 49.5,27.7014925 Z" id="Mask"></path>
                <path d="M49.9759615,27.7014925 C54.1818223,27.7014925 57.5913462,24.2801461 57.5913462,20.0597015 C57.5913462,15.8392568 54.1818223,12.4179104 49.9759615,12.4179104 C45.7701008,12.4179104 42.3605769,15.8392568 42.3605769,20.0597015 C42.3605769,24.2801461 45.7701008,27.7014925 49.9759615,27.7014925 Z" id="Oval-2"></path>
            </g>
        </g>
    </g>
</svg>