<?xml version="1.0" encoding="UTF-8" standalone="no"?>
<svg width="214px" height="78px" viewBox="0 0 214 78" version="1.1" xmlns="http://www.w3.org/2000/svg" xmlns:xlink="http://www.w3.org/1999/xlink">
    <!-- Generator: Sketch 3.6.1 (26313) - http://www.bohemiancoding.com/sketch -->
    <title>logo mark 01</title>
    <desc>Created with Sketch.</desc>
    <defs>
        <path id="path-1" d="M104,58 C161.437614,58 208,29 208,29 C208,29 161.437614,0 104,0 C46.562386,0 0,29 0,29 C0,29 46.562386,58 104,58 Z"></path>
    </defs>
    <g id="Welcome" stroke="none" stroke-width="1" fill="none" fill-rule="evenodd">
        <g id="Desktop-Copy" transform="translate(-437.000000, -113.000000)">
            <g id="logo-mark-01" transform="translate(440.000000, 115.000000)">
                <g id="Oval-2">
                    <mask id="mask-2" fill="white">
                        <use xlink:href="#path-1"></use>
                    </mask>
                    <use id="Mask" xlink:href="#path-1"></use>
                    <path d="M105,65 C113.836556,65 121,57.836556 121,49 C121,40.163444 113.836556,33 105,33 C96.163444,33 89,40.163444 89,49 C89,57.836556 96.163444,65 105,65 Z" fill="#FFFFFF" mask="url(#mask-2)"></path>
                </g>
                <circle id="Oval-2-Copy" stroke="#FFFFFF" stroke-width="3" cx="104.5" cy="48.5" r="25.5"></circle>
                <path d="M104,58 C161.437614,58 208,29 208,29 C208,29 161.437614,0 104,0 C46.562386,0 0,29 0,29 C0,29 46.562386,58 104,58 Z" id="Mask" stroke="#FFFFFF" stroke-width="3"></path>
                <path d="M105,65 C113.836556,65 121,57.836556 121,49 C121,40.163444 113.836556,33 105,33 C96.163444,33 89,40.163444 89,49 C89,57.836556 96.163444,65 105,65 Z" id="Oval-2" stroke="#FFFFFF" stroke-width="3"></path>
            </g>
        </g>
    </g>
</svg>