<?xml version="1.0" encoding="UTF-8" standalone="no"?>
<svg width="214px" height="71px" viewBox="0 0 214 71" version="1.1" xmlns="http://www.w3.org/2000/svg" xmlns:xlink="http://www.w3.org/1999/xlink">
    <!-- Generator: Sketch 3.6.1 (26313) - http://www.bohemiancoding.com/sketch -->
    <title>logo mark 02</title>
    <desc>Created with Sketch.</desc>
    <defs></defs>
    <g id="Welcome" stroke="none" stroke-width="1" fill="none" fill-rule="evenodd">
        <g id="Desktop-Copy" transform="translate(-747.000000, -120.000000)" stroke="#FFFFFF" stroke-width="3">
            <g id="logo-mark-02" transform="translate(750.000000, 122.000000)">
                <circle id="Oval-2-Copy" cx="104.5" cy="41.5" r="25.5"></circle>
                <path d="M104,58 C161.437614,58 208,29 208,29 C208,29 161.437614,0 104,0 C46.562386,0 0,29 0,29 C0,29 46.562386,58 104,58 Z" id="Mask"></path>
                <path d="M105,58 C113.836556,58 121,50.836556 121,42 C121,33.163444 113.836556,26 105,26 C96.163444,26 89,33.163444 89,42 C89,50.836556 96.163444,58 105,58 Z" id="Oval-2"></path>
            </g>
        </g>
    </g>
</svg>