<?xml version="1.0" standalone="no"?>
<!DOCTYPE svg PUBLIC "-//W3C//DTD SVG 20010904//EN"
 "http://www.w3.org/TR/2001/REC-SVG-20010904/DTD/svg10.dtd">
<svg version="1.0" xmlns="http://www.w3.org/2000/svg"
 width="512.000000pt" height="512.000000pt" viewBox="0 0 512.000000 512.000000"
 preserveAspectRatio="xMidYMid meet">
<metadata>
Created by potrace 1.11, written by Peter Selinger 2001-2013
</metadata>
<g transform="translate(0.000000,512.000000) scale(0.100000,-0.100000)"
fill="#000000" stroke="none">
<path d="M0 4264 c0 -811 1 -856 18 -851 320 91 741 194 1048 256 1258 252
2268 255 3462 10 162 -34 510 -115 575 -135 16 -5 17 37 17 785 l0 791 -2560
0 -2560 0 0 -856z"/>
<path d="M2520 3809 c-737 -33 -1583 -183 -2483 -439 l-37 -11 0 -759 0 -759
32 -10 c528 -153 793 -221 1153 -294 230 -47 541 -100 555 -95 5 2 -9 30 -32
63 -208 309 -249 709 -108 1062 106 265 344 507 607 617 442 185 940 89 1273
-244 193 -193 308 -440 329 -705 22 -291 -56 -558 -230 -790 -21 -27 -37 -51
-35 -52 6 -6 406 48 576 78 323 56 759 155 968 220 l32 11 -2 896 -3 896 -195
48 c-650 159 -1227 245 -1814 268 -258 11 -334 10 -586 -1z"/>
<path d="M2467 3215 c-549 -104 -938 -597 -903 -1142 12 -185 75 -375 173
-525 72 -110 89 -124 158 -131 257 -27 354 -36 445 -42 l105 -6 -46 19 c-220
90 -386 275 -461 512 -33 108 -33 311 1 420 96 310 343 518 663 560 336 44
680 -154 812 -468 80 -189 80 -414 0 -604 -80 -192 -257 -358 -462 -433 -36
-13 -34 -14 61 -14 55 -1 176 4 270 10 196 12 184 7 269 119 70 92 154 266
185 385 22 86 26 121 26 255 1 165 -10 235 -58 371 -117 335 -411 604 -763
696 -124 32 -353 41 -475 18z"/>
<path d="M2544 2826 c-147 -34 -267 -100 -374 -206 -86 -86 -139 -171 -177
-285 -25 -72 -27 -95 -28 -225 0 -153 13 -219 67 -324 189 -372 660 -516 1020
-313 172 98 289 244 350 437 33 108 33 292 0 400 -77 243 -252 421 -490 497
-97 31 -275 40 -368 19z"/>
<path d="M0 895 l0 -895 2560 0 2560 0 0 826 c0 781 -1 825 -17 820 -44 -14
-298 -80 -393 -102 -374 -89 -765 -156 -1160 -199 -59 -7 -69 -12 -117 -55
-120 -110 -314 -213 -480 -256 -132 -35 -346 -44 -482 -20 -228 40 -429 141
-602 303 -55 51 -86 73 -104 73 -43 0 -485 77 -687 121 -258 55 -618 146 -864
219 -111 33 -205 60 -208 60 -3 0 -6 -403 -6 -895z"/>
<path d="M1916 1335 c151 -136 334 -229 534 -271 120 -25 325 -24 446 4 170
38 358 128 465 223 l44 39 -125 -8 c-197 -11 -790 -7 -960 7 -85 6 -211 19
-280 27 -175 20 -170 20 -124 -21z"/>
</g>
</svg>
